.
..............................Site Info...........................

 -   http://www.scenetime.com  *_*   

SceneTime is going to Close sign up on march/1, hurry up! get in before the doors are closed.

     We care to share . Join us on  http://www.scenetime.com 

    Be the first to get new release at  http://www.scenetime.com

        Seed back for speed


...................................NFO:.................................................








































          
          
              
              
                    
                    
                    
                    

Lovers.Lane.2000.DVDRiP.AC3-2.0.XviD-SiC

Poster:
[img]http://img848.imageshack.us/img848/11/loverslanemovieposter19.jpg[/img]

IMDB Link:
http://www.imdb.com/title/tt0187251/

Description:
A man who killed 13 years before goes out on the loose to kill his victims' children.


General
Complete name                    : Lovers.Lane.2000.DVDRiP.AC3-2.0.XviD-SiC.avi
Format                           : AVI
Format/Info                      : Audio Video Interleave
File size                        : 1.37 GiB
Duration                         : 1h 28mn
Overall bit rate                 : 2 198 Kbps

Video
ID                               : 0
Format                           : MPEG-4 Visual
Format profile                   : Simple@L3
Format settings, BVOP            : 2
Format settings, QPel            : No
Format settings, GMC             : No warppoints
Format settings, Matrix          : Default (H.263)
Muxing mode                      : Packed bitstream
Codec ID                         : XVID
Codec ID/Hint                    : XviD
Duration                         : 1h 28mn
Bit rate                         : 1 935 Kbps
Width                            : 656 pixels
Height                           : 480 pixels
Display aspect ratio             : 4:3
Frame rate                       : 23.976 fps
Color space                      : YUV
Chroma subsampling               : 4:2:0
Bit depth                        : 8 bits
Scan type                        : Progressive
Compression mode                 : Lossy
Bits/(Pixel*Frame)               : 0.256
Stream size                      : 1.20 GiB (88%)
Writing library                  : XviD 1.0.3 (UTC 2004-12-20)

Audio
ID                               : 1
Format                           : AC-3
Format/Info                      : Audio Coding 3
Mode extension                   : CM (complete main)
Codec ID                         : 2000
Duration                         : 1h 28mn
Bit rate mode                    : Constant
Bit rate                         : 256 Kbps
Channel(s)                       : 2 channels
Channel positions                : Front: L R
Sampling rate                    : 48.0 KHz
Bit depth                        : 16 bits
Compression mode                 : Lossy
Stream size                      : 163 MiB (12%)
Alignment                        : Aligned on interleaves
Interleave, duration             : 64 ms (1.53 video frames)
Interleave, preload duration     : 192 ms
Title                            : VTS_01_1 T80 2_0ch 192Kbps DELAY 0ms










Screenshots:
[img]http://img401.imageshack.us/img401/3773/vlcsnap2012022020h18m23.png[/img]
[img]http://img838.imageshack.us/img838/3145/vlcsnap2012022020h18m16.png[/img]
[img]http://img813.imageshack.us/img813/7782/vlcsnap2012022020h18m17.png[/img]
[img]http://img843.imageshack.us/img843/9731/vlcsnap2012022020h18m12.png[/img]

Note: 

Source: 

Enjoy!

Respects to T00NG0D, ELEKTRI4KA, PA, YeFsTe, MrRep and everyone in the struggle...RiP MU & BTJ